<svg width="128" height="127" viewBox="0 0 128 127" fill="none" xmlns="http://www.w3.org/2000/svg">
<path d="M49.6928 5.01706L53.486 15.5552L52.5677 15.8857L44.7916 9.40004L45.2733 9.22663L43.4598 19.1641L42.5414 19.4947L38.7482 8.95659L39.8171 8.57185L43.0088 17.4389L42.7529 17.531L44.4393 8.4215L44.9662 8.23184L52.1017 14.1659L51.8157 14.2689L48.6239 5.4018L49.6928 5.01706Z" fill="white"/>
<path d="M26.1624 17.0829C26.8102 16.5439 27.5016 16.1491 28.2365 15.8984C28.9701 15.6627 29.7056 15.5711 30.4431 15.6236C31.1792 15.6911 31.8803 15.8918 32.5465 16.2255C33.2113 16.5743 33.8064 17.0644 34.3317 17.6958C34.857 18.3272 35.2273 18.9974 35.4425 19.7064C35.6563 20.4304 35.7261 21.1563 35.6517 21.8842C35.576 22.6271 35.3522 23.3337 34.9801 24.0039C34.6149 24.6824 34.1043 25.2945 33.4484 25.8403C32.8006 26.3792 32.1099 26.7666 31.3763 27.0022C30.6495 27.2461 29.9215 27.3384 29.1923 27.2791C28.4548 27.2266 27.7537 27.026 27.0889 26.6772C26.4158 26.3352 25.8167 25.8485 25.2914 25.2171C24.7661 24.5857 24.3965 23.908 24.1827 23.184C23.9606 22.4668 23.8909 21.7409 23.9734 21.0062C24.0478 20.2783 24.2675 19.5752 24.6327 18.8967C25.0047 18.2264 25.5146 17.6218 26.1624 17.0829ZM26.8378 17.8946C26.3212 18.3244 25.9172 18.8062 25.6259 19.34C25.3332 19.8888 25.16 20.4561 25.1063 21.0419C25.0511 21.6428 25.1108 22.2315 25.2851 22.808C25.4663 23.3926 25.7718 23.9433 26.2016 24.4599C26.6313 24.9765 27.1138 25.3729 27.649 25.6492C28.1909 25.9337 28.7589 26.0994 29.353 26.1463C29.9457 26.2083 30.535 26.1411 31.1211 25.945C31.7058 25.7638 32.2564 25.4583 32.773 25.0285C33.2896 24.5987 33.6942 24.1094 33.9869 23.5606C34.2865 23.0201 34.4638 22.4493 34.5189 21.8485C34.5726 21.2626 34.513 20.6739 34.34 20.0824C34.1657 19.5059 33.8636 18.9594 33.4338 18.4428C33.0109 17.9344 32.5284 17.538 31.9864 17.2535C31.4363 16.9758 30.8648 16.806 30.2722 16.7441C29.6781 16.6971 29.0846 16.7677 28.4918 16.9557C27.9057 17.1519 27.3544 17.4649 26.8378 17.8946Z" fill="white"/>
<path d="M15.9176 27.7374L25.49 33.552L24.9833 34.3861L12.6569 35.9408L12.9228 35.5032L21.2371 40.5535L20.6307 41.5518L11.0583 35.7373L11.565 34.9031L23.883 33.3621L23.6172 33.7997L15.3029 28.7494L15.9176 27.7374Z" fill="white"/>
<path d="M6.68761 47.3518L16.548 49.8665L17.5207 46.0526L18.5129 46.3056L16.275 55.0807L15.2828 54.8277L16.2554 51.0138L6.39502 48.4991L6.68761 47.3518Z" fill="white"/>
<path d="M4.46404 60.5689L15.6561 60.1462L15.8384 64.9748C15.8855 66.2219 15.6714 67.196 15.1962 67.8971C14.7214 68.6089 14.0257 68.982 13.109 69.0167C12.5014 69.0396 11.9843 68.915 11.5578 68.6429C11.1316 68.3815 10.8027 68.0096 10.571 67.5274C10.3397 67.0558 10.2132 66.5322 10.1914 65.9566L10.5854 66.2139C10.6124 66.928 10.5236 67.5452 10.3191 68.0653C10.1256 68.5956 9.81582 69.0129 9.38967 69.3172C8.97417 69.6211 8.44665 69.7851 7.80711 69.8093C6.85845 69.8451 6.10969 69.5211 5.56083 68.8374C5.01238 68.1642 4.71158 67.1242 4.65845 65.7172L4.46404 60.5689ZM5.48403 61.7152L5.63315 65.6644C5.67018 66.645 5.86378 67.3902 6.21393 67.9C6.57474 68.4095 7.12289 68.6503 7.85836 68.6225C8.58318 68.5951 9.10094 68.3141 9.41165 67.7793C9.73302 67.2441 9.87519 66.4862 9.83816 65.5056L9.6842 61.4285L10.6595 61.3917L10.799 65.085C10.8328 65.9804 11.0295 66.6668 11.3891 67.1442C11.7491 67.6323 12.2649 67.8637 12.9364 67.8383C13.6186 67.8126 14.1154 67.543 14.4269 67.0295C14.7495 66.5263 14.8939 65.827 14.8601 64.9317L14.7254 61.3662L5.48403 61.7152Z" fill="white"/>
<path d="M6.69675 78.9688L17.3098 75.3905L17.688 76.5124L8.04536 79.7635L10.0492 85.7068L9.07887 86.034L6.69675 78.9688Z" fill="white"/>
<path d="M11.7166 91.8208L23.843 89.6748L24.5063 90.6362L18.195 101.211L17.4862 100.184L23.4675 90.3421L23.7401 90.7372L12.4162 92.8348L11.7166 91.8208ZM15.3242 91.7811L16.3143 91.5256L20.0123 96.8857L19.422 97.7206L15.3242 91.7811Z" fill="white"/>
<path d="M23.7853 107.024L30.5926 98.1306L31.3677 98.7238L31.5917 111.146L31.1851 110.835L37.0978 103.11L38.0253 103.82L31.2179 112.713L30.4429 112.12L30.2316 99.7079L30.6382 100.019L24.7255 107.744L23.7853 107.024Z" fill="white"/>
<path d="M44.8232 119.327C44.0287 119.046 43.3407 118.656 42.7593 118.156C42.1814 117.647 41.7314 117.063 41.4092 116.406C41.087 115.749 40.9006 115.044 40.8501 114.291C40.8096 113.541 40.9261 112.779 41.1998 112.005C41.4735 111.231 41.8616 110.565 42.3642 110.007C42.8768 109.453 43.4648 109.021 44.1282 108.713C44.8017 108.408 45.5215 108.243 46.2878 108.22C47.0576 108.187 47.8397 108.31 48.6342 108.591C49.3986 108.861 50.0714 109.246 50.6529 109.746C51.2378 110.235 51.671 110.818 51.9523 111.495L50.9927 111.953C50.7167 111.358 50.3509 110.872 49.8955 110.496C49.4436 110.11 48.9159 109.811 48.3125 109.598C47.6789 109.374 47.0515 109.276 46.4302 109.306C45.8125 109.325 45.2314 109.465 44.6869 109.725C44.146 109.975 43.6658 110.325 43.2461 110.777C42.84 111.221 42.525 111.761 42.3011 112.394C42.0771 113.028 41.9816 113.65 42.0145 114.261C42.061 114.866 42.2143 115.441 42.4744 115.985C42.7381 116.52 43.1023 116.993 43.5672 117.407C44.0357 117.81 44.5867 118.123 45.2203 118.347C45.8237 118.56 46.4225 118.659 47.0165 118.643C47.6106 118.626 48.202 118.473 48.7909 118.184L49.2493 119.143C48.6054 119.493 47.9003 119.679 47.1341 119.702C46.3679 119.726 45.5976 119.601 44.8232 119.327Z" fill="white"/>
<path d="M67.6946 122.608L65.8494 111.561L66.8121 111.4L73.3013 119.173L72.7963 119.257L76.3598 109.805L77.3225 109.644L79.1676 120.691L78.0472 120.878L76.4946 111.583L76.7629 111.538L73.4727 120.199L72.9203 120.291L66.9626 113.175L67.2625 113.125L68.8151 122.42L67.6946 122.608Z" fill="white"/>
<path d="M93.005 114.95C92.2712 115.364 91.5203 115.629 90.7523 115.744C89.9884 115.844 89.2484 115.803 88.5323 115.619C87.8202 115.421 87.1663 115.098 86.5706 114.65C85.979 114.188 85.4813 113.599 85.0775 112.884C84.6737 112.169 84.4294 111.443 84.3446 110.707C84.2639 109.957 84.3252 109.23 84.5287 108.527C84.7362 107.81 85.083 107.155 85.569 106.562C86.0497 105.96 86.6617 105.449 87.4048 105.029C88.1386 104.615 88.8875 104.358 89.6514 104.257C90.4101 104.147 91.1428 104.187 91.8497 104.376C92.5658 104.56 93.2197 104.882 93.8113 105.345C94.4123 105.802 94.9146 106.388 95.3184 107.103C95.7221 107.818 95.9644 108.551 96.0452 109.302C96.1352 110.047 96.0738 110.774 95.8611 111.482C95.6576 112.185 95.3155 112.837 94.8348 113.439C94.3488 114.032 93.7388 114.536 93.005 114.95ZM92.4859 114.03C93.0711 113.7 93.5548 113.298 93.937 112.825C94.3232 112.338 94.5952 111.811 94.753 111.244C94.9148 110.662 94.9615 110.073 94.8932 109.474C94.8196 108.867 94.6177 108.27 94.2873 107.685C93.957 107.1 93.5533 106.623 93.0763 106.256C92.594 105.879 92.0648 105.614 91.4888 105.461C90.9168 105.294 90.3249 105.255 89.7132 105.343C89.1055 105.417 88.5091 105.619 87.9239 105.949C87.3387 106.279 86.853 106.688 86.4668 107.176C86.0753 107.654 85.7986 108.184 85.6368 108.765C85.4791 109.332 85.4323 109.922 85.4966 110.535C85.5649 111.133 85.7643 111.725 86.0946 112.31C86.4197 112.886 86.8234 113.362 87.3057 113.739C87.7972 114.111 88.329 114.38 88.901 114.547C89.4771 114.7 90.0736 114.737 90.6905 114.658C91.3023 114.57 91.9007 114.361 92.4859 114.03Z" fill="white"/>
<path d="M106.338 104.678L98.9669 97.6626L96.2532 100.514L95.5115 99.8077L101.755 93.248L102.497 93.954L99.7832 96.805L107.154 103.821L106.338 104.678Z" fill="white"/>
<path d="M117.067 89.9071C116.689 90.6604 116.214 91.2992 115.641 91.8234C115.063 92.3333 114.426 92.712 113.73 92.9594C113.028 93.1925 112.305 93.2896 111.561 93.2508C110.812 93.1976 110.071 92.9871 109.336 92.6191C108.602 92.2511 107.994 91.7854 107.513 91.2221C107.027 90.6445 106.672 90.0073 106.449 89.3106C106.22 88.5997 106.142 87.8626 106.215 87.0994C106.277 86.3314 106.5 85.566 106.882 84.8031C107.26 84.0498 107.737 83.4181 108.315 82.9082C108.883 82.3936 109.513 82.0173 110.205 81.7794C110.902 81.532 111.624 81.4349 112.373 81.488C113.127 81.5316 113.871 81.7374 114.605 82.1054C115.34 82.4734 115.95 82.9462 116.436 83.5239C116.927 84.092 117.281 84.7291 117.5 85.4353C117.724 86.132 117.804 86.8643 117.741 87.6323C117.669 88.3954 117.444 89.1537 117.067 89.9071ZM116.123 89.4339C116.424 88.8332 116.601 88.2299 116.654 87.6241C116.702 87.004 116.633 86.4148 116.448 85.8565C116.258 85.2839 115.967 84.7685 115.576 84.3102C115.176 83.8471 114.676 83.465 114.075 83.1639C113.474 82.8629 112.873 82.693 112.272 82.6543C111.662 82.6108 111.075 82.6866 110.512 82.8816C109.944 83.0624 109.431 83.36 108.972 83.7746C108.509 84.1749 108.127 84.6755 107.826 85.2762C107.525 85.877 107.35 86.4875 107.302 87.1075C107.244 87.7229 107.311 88.3168 107.501 88.8894C107.686 89.4477 107.977 89.9632 108.372 90.4358C108.763 90.8941 109.259 91.2738 109.86 91.5749C110.451 91.8712 111.052 92.0411 111.662 92.0845C112.278 92.1185 112.869 92.0451 113.437 91.8643C114 91.6693 114.516 91.3668 114.984 90.957C115.442 90.5424 115.822 90.0347 116.123 89.4339Z" fill="white"/>
<path d="M122.098 76.063L111.025 74.3784L111.656 70.2341C111.799 69.2956 112.074 68.5121 112.483 67.8837C112.881 67.2538 113.392 66.8028 114.016 66.5309C114.631 66.2469 115.339 66.1658 116.14 66.2877C116.921 66.4065 117.568 66.6937 118.081 67.1494C118.585 67.593 118.939 68.1755 119.142 68.8969C119.335 69.6167 119.36 70.4459 119.217 71.3844L118.685 74.8802L118.227 74.2764L122.276 74.8925L122.098 76.063ZM123.248 68.502L118.797 70.738L118.99 69.4725L123.443 67.2207L123.248 68.502ZM118.322 74.2908L117.689 74.7286L118.216 71.2645C118.384 70.1572 118.269 69.2819 117.871 68.6387C117.474 67.9849 116.838 67.5914 115.962 67.4583C115.077 67.3235 114.347 67.5092 113.774 68.0154C113.202 68.5111 112.832 69.3125 112.663 70.4198L112.136 73.8839L111.662 73.2777L118.322 74.2908Z" fill="white"/>
<path d="M122.772 53.7118C122.894 54.5456 122.87 55.3362 122.699 56.0834C122.517 56.8323 122.211 57.5023 121.78 58.0935C121.349 58.6848 120.812 59.1783 120.169 59.5741C119.525 59.9594 118.796 60.2114 117.983 60.3303C117.171 60.4491 116.401 60.4162 115.673 60.2315C114.944 60.0363 114.288 59.7171 113.706 59.274C113.122 58.8204 112.641 58.26 112.263 57.593C111.875 56.9275 111.62 56.1779 111.498 55.3441C111.381 54.5419 111.408 53.7672 111.579 53.0199C111.739 52.2742 112.053 51.6193 112.52 51.055L113.373 51.6903C112.975 52.2121 112.716 52.762 112.596 53.3402C112.465 53.9199 112.446 54.5264 112.538 55.1596C112.635 55.8246 112.842 56.425 113.157 56.961C113.462 57.4985 113.857 57.9475 114.341 58.308C114.814 58.67 115.348 58.9315 115.943 59.0924C116.526 59.2444 117.15 59.2718 117.815 59.1745C118.479 59.0773 119.075 58.8717 119.6 58.5577C120.113 58.2347 120.55 57.8313 120.911 57.3474C121.261 56.865 121.51 56.3219 121.659 55.718C121.797 55.1157 121.818 54.482 121.721 53.8171C121.628 53.1838 121.436 52.6082 121.145 52.0903C120.853 51.5723 120.442 51.1203 119.912 50.7344L120.547 49.8815C121.156 50.2883 121.65 50.8252 122.027 51.4923C122.405 52.1593 122.654 52.8991 122.772 53.7118Z" fill="white"/>
<path d="M118.35 39.007L114.573 40.7511L115.127 40.1956L110.06 47.7699L109.53 46.6223L113.982 39.9667L114.264 40.5768L106.31 39.6499L105.814 38.575L114.866 39.6291L114.084 39.6907L117.86 37.9466L118.35 39.007Z" fill="white"/>
<path d="M108.274 23.2476C108.83 23.8811 109.239 24.5579 109.502 25.2781C109.757 26.0052 109.864 26.7341 109.824 27.4646C109.784 28.1952 109.601 28.9013 109.277 29.5831C108.946 30.2568 108.471 30.8645 107.854 31.4061C107.236 31.9477 106.572 32.3389 105.861 32.5796C105.143 32.8123 104.419 32.901 103.689 32.8457C102.953 32.7824 102.245 32.5735 101.565 32.2192C100.877 31.8718 100.255 31.3814 99.6997 30.7479C99.1651 30.1385 98.7664 29.4737 98.5036 28.7536C98.2328 28.0405 98.1401 27.3201 98.2255 26.5925L99.2867 26.6619C99.2364 27.3162 99.3179 27.9187 99.5313 28.4693C99.7367 29.027 100.05 29.5464 100.472 30.0275C100.916 30.5327 101.415 30.9244 101.972 31.2027C102.52 31.488 103.095 31.6503 103.697 31.6897C104.291 31.7361 104.882 31.6651 105.468 31.4768C106.04 31.2874 106.579 30.9712 107.084 30.528C107.589 30.0849 107.977 29.5887 108.247 29.0395C108.502 28.4893 108.649 27.9131 108.689 27.311C108.72 26.7159 108.634 26.1245 108.431 25.5368C108.219 24.956 107.892 24.4131 107.449 23.9079C107.027 23.4268 106.553 23.0481 106.026 22.7718C105.5 22.4955 104.91 22.3397 104.254 22.3044L104.324 21.2431C105.056 21.2533 105.762 21.4355 106.442 21.7899C107.122 22.1443 107.733 22.6302 108.274 23.2476Z" fill="white"/>
<path d="M98.8249 14.7726L92.7623 24.1898L91.7668 23.5489L97.2751 14.9927L92.0014 11.5976L92.5557 10.7366L98.8249 14.7726Z" fill="white"/>
<path d="M82.3257 12.9768L76.6735 11.2163L76.9733 10.2539L82.6255 12.0144L82.3257 12.9768ZM83.7404 8.0046L77.3092 6.00136L77.6137 5.02369L85.1754 7.37904L81.8446 18.0723L74.512 15.7883L74.8166 14.8107L81.0187 16.7425L83.7404 8.0046Z" fill="white"/>
</svg>
