<?xml version="1.0" encoding="utf-8"?>
<!-- Generator: Adobe Illustrator 23.1.0, SVG Export Plug-In . SVG Version: 6.00 Build 0)  -->
<svg version="1.1" id="Calque_1" xmlns="http://www.w3.org/2000/svg" xmlns:xlink="http://www.w3.org/1999/xlink" x="0px" y="0px"
	 viewBox="0 0 1920 1080" style="enable-background:new 0 0 1920 1080;" xml:space="preserve">
<style type="text/css">
	.st0{fill:none;stroke:url(#SVGID_1_);stroke-width:2;}
</style>
<linearGradient id="SVGID_1_" gradientUnits="userSpaceOnUse" x1="1310.1417" y1="-5.6845" x2="718.9858" y2="1052.1238" gradientTransform="matrix(1 0 0 -1 0 1082)">
	<stop  offset="0" style="stop-color:#9A6A44"/>
	<stop  offset="0.2813" style="stop-color:#FFF4BC"/>
	<stop  offset="0.5313" style="stop-color:#AB6516"/>
	<stop  offset="0.7604" style="stop-color:#9C3E09"/>
	<stop  offset="1" style="stop-color:#E7D4A6"/>
</linearGradient>
<path class="st0" d="M134.3,476.43l0.18-1.35h-1.36h-28.88h-1.39l0.21,1.38c0.81,5.19,1.41,11.61,2.02,20.27
	c0.19,4.08,0.37,8.5,0.56,13.27H39.57c-6.87,0-16.58-0.6-22.41-1.4l-1.36-0.19v1.37v26.84v1.26l1.26-0.07
	c7.11-0.4,15.83-0.81,23.12-0.81h53.18c-16.6,22.47-49.23,49.76-87.65,67.75l-1.45,0.68l1.07,1.2l18.71,20.99l0.62,0.7l0.83-0.44
	c31.07-16.39,62.88-43.1,81.28-65.9c0.34,19.58,0.34,38.33,0.34,51.13c0,2.84-0.5,4.61-1.38,5.67c-0.83,1.01-2.2,1.61-4.54,1.61
	c-6.85,0-17.76-0.8-26.84-2.4l-1.53-0.27l0.13,1.55l2.24,26.23l0.09,1.02l1.02,0.07c11.62,0.81,23.04,1.21,35.47,1.21
	c7.9,0,13.98-1.91,18.07-5.66c4.11-3.77,6.01-9.24,5.9-15.93c-0.29-19.23-0.78-41.67-1.25-63.57c-0.19-8.71-0.38-17.33-0.55-25.63
	h25.01c3.67,0,8.33,0.18,12.98,0.36c2.28,0.09,4.56,0.18,6.71,0.24l1.23,0.04v-1.23v-26.84v-1.41l-1.39,0.23
	c-4.81,0.8-14.3,1.6-20.95,1.6h-24.23c-0.01-2.21-0.06-4.35-0.1-6.4l-0.01-0.3c-0.05-2.32-0.1-4.52-0.1-6.64
	C133.09,490.44,133.49,482.62,134.3,476.43z M212.97,541.41l-1.29-0.11v1.3v31.68v1.29l1.29-0.1c7.48-0.6,21.07-1.01,32.64-1.01
	h109.2c6.03,0,12.95,0.4,18.23,0.71c2.17,0.13,4.07,0.24,5.51,0.3l1.24,0.05v-1.24V542.6v-1.29l-1.29,0.1
	c-0.63,0.05-1.31,0.1-2.03,0.16c-5.39,0.43-13.29,1.05-21.67,1.05h-109.2C235.06,542.61,220.25,542.01,212.97,541.41z
	 M465.04,650.51l-0.21,1.37h1.39h31.72h1.32l-0.13-1.31c-0.81-8.27-1.82-22.35-1.82-28.14v-55.44c21.81,7.48,51.3,18.86,71.67,29.46
	l1.16,0.6l0.5-1.2L582.22,568l0.43-1.04l-1.01-0.49c-18.59-9.02-57.08-23.17-84.33-31.1V506.4c0-8.19,1.01-17.01,1.82-24.08
	l0.15-1.33h-1.34h-31.72h-1.46l0.29,1.43c1.4,6.95,2.01,16.96,2.01,23.98v116.04C467.06,630.46,466.25,642.51,465.04,650.51z
	 M760.36,493.16l-0.55-0.8l-0.9,0.37l-16.07,6.66l-1.39,0.58l0.87,1.22c5,6.99,10.54,17.74,14.74,25.89
	c0.36,0.69,0.7,1.36,1.04,2.01l0.51,0.99l1.03-0.45l16.27-7.06l1.17-0.51l-0.59-1.13C772.63,513.45,765.49,500.69,760.36,493.16z
	 M784.36,484.08l-0.55-0.8l-0.89,0.37l-16.06,6.66l-1.41,0.58l0.9,1.23c5.43,7.39,12.11,19.23,16.16,27.47l0.5,1.01l1.04-0.44
	l16.27-6.86l1.19-0.5l-0.59-1.15C797.23,504.55,789.67,491.79,784.36,484.08z M638.69,591.67l-0.01,0.01
	c-6.87,17.66-18.82,39.35-31.56,55.81l-0.95,1.23l1.44,0.6l28.47,11.91l0.88,0.37l0.55-0.78c10.85-15.23,22.89-38.33,30.24-57.99
	c7.15-18.84,14.48-46.75,17.34-60.93l0-0.01l0-0.01c0.81-4.41,3.03-14.25,4.85-20.04l0.39-1.26l-1.3-0.26l-29.69-6.05l-1.3-0.27
	l-0.13,1.32C655.5,540.81,647.81,569.15,638.69,591.67z M739.14,588.28L739.14,588.28c8.12,21.74,15.42,47.12,21.11,71.1l0.3,1.26
	l1.23-0.4l30.1-9.69l1.1-0.35l-0.32-1.11c-5.7-20.01-16.49-52.34-23.63-70.54l0,0c-7.74-19.61-21.79-50.73-30.16-66.32l-0.47-0.88
	l-0.95,0.3l-27.05,8.68l-1.39,0.44l0.71,1.27C718.23,537.33,731.43,567.14,739.14,588.28z M842.37,578.67l-1.44,0.37l0.67,1.33
	l12.81,25.43l0.45,0.89l0.95-0.28c24.41-7.09,49.57-17.62,70.26-28.25v62.62c0,8.87-0.61,21.5-1.41,26.24l-0.23,1.39h1.41h32.13
	h1.58l-0.43-1.52c-0.67-2.38-1.13-6.65-1.41-11.53c-0.28-4.84-0.38-10.16-0.38-14.59v-80.89c19.61-12.89,38.97-28.53,54.35-43.58
	l0.89-0.87l-0.9-0.85L989.7,493.8l-0.93-0.88l-0.81,0.98c-13.13,15.83-36.21,35.93-57.05,48.78
	C908.44,556.35,878.66,569.42,842.37,578.67z M1147.72,475.12l0.18-1.35h-1.36h-28.88h-1.39l0.21,1.38
	c0.81,5.19,1.41,11.61,2.02,20.27c0.19,4.08,0.37,8.5,0.56,13.27h-66.07c-6.87,0-16.58-0.6-22.41-1.4l-1.36-0.19v1.37v26.84v1.26
	l1.26-0.07c7.11-0.4,15.83-0.81,23.12-0.81h53.18c-16.6,22.47-49.23,49.76-87.65,67.75l-1.45,0.68l1.07,1.2l18.71,20.99l0.62,0.7
	l0.83-0.44c31.07-16.39,62.88-43.1,81.28-65.9c0.34,19.58,0.34,38.33,0.34,51.13c0,2.84-0.5,4.61-1.38,5.67
	c-0.83,1.01-2.2,1.61-4.54,1.61c-6.85,0-17.76-0.8-26.84-2.4l-1.53-0.27l0.13,1.55l2.24,26.23l0.09,1.02l1.02,0.07
	c11.62,0.81,23.04,1.21,35.47,1.21c7.9,0,13.98-1.91,18.07-5.66c4.11-3.77,6.01-9.24,5.9-15.93c-0.29-19.23-0.78-41.67-1.25-63.57
	c-0.19-8.71-0.38-17.33-0.55-25.63h25.01c3.67,0,8.33,0.18,12.98,0.36c2.28,0.09,4.56,0.18,6.71,0.24l1.23,0.04v-1.23v-26.84v-1.41
	l-1.39,0.23c-4.81,0.8-14.3,1.6-20.95,1.6h-24.23c-0.01-2.21-0.06-4.35-0.1-6.4l-0.01-0.3c-0.05-2.32-0.1-4.52-0.1-6.64
	C1146.51,489.13,1146.92,481.31,1147.72,475.12z M1226.4,540.1l-1.29-0.11v1.3v31.68v1.29l1.29-0.1c7.48-0.6,21.07-1.01,32.64-1.01
	h109.2c6.03,0,12.95,0.4,18.23,0.71c2.17,0.13,4.07,0.24,5.51,0.3l1.24,0.05v-1.24v-31.68V540l-1.29,0.1
	c-0.63,0.05-1.31,0.1-2.03,0.16c-5.39,0.43-13.29,1.05-21.67,1.05h-109.2C1248.49,541.31,1233.68,540.7,1226.4,540.1z
	 M1478.46,649.2l-0.21,1.37h1.39h31.72h1.32l-0.13-1.31c-0.81-8.27-1.82-22.35-1.82-28.14v-55.44c21.81,7.48,51.3,18.86,71.67,29.46
	l1.16,0.6l0.5-1.2l11.59-27.85l0.43-1.04l-1.01-0.49c-18.59-9.02-57.08-23.17-84.33-31.1v-28.97c0-8.19,1.01-17.01,1.82-24.08
	l0.15-1.33h-1.34h-31.72h-1.46l0.29,1.43c1.4,6.95,2.01,16.96,2.01,23.98v116.04C1480.49,629.15,1479.68,641.2,1478.46,649.2z
	 M1773.79,491.86l-0.55-0.8l-0.9,0.37l-16.07,6.66l-1.39,0.58l0.87,1.22c5,6.99,10.54,17.74,14.74,25.89
	c0.36,0.69,0.7,1.36,1.04,2.01l0.51,0.99l1.03-0.45l16.27-7.06l1.17-0.51l-0.59-1.13C1786.06,512.14,1778.92,499.38,1773.79,491.86z
	 M1797.78,482.77l-0.55-0.8l-0.89,0.37l-16.06,6.66l-1.41,0.58l0.9,1.23c5.43,7.39,12.11,19.23,16.16,27.47l0.5,1.01l1.04-0.44
	l16.27-6.86l1.19-0.5l-0.59-1.15C1810.65,503.24,1803.1,490.48,1797.78,482.77z M1652.12,590.36l-0.01,0.01
	c-6.87,17.66-18.82,39.35-31.56,55.81l-0.95,1.23l1.44,0.6l28.47,11.91l0.88,0.37l0.55-0.78c10.85-15.23,22.89-38.33,30.24-57.99
	c7.15-18.84,14.48-46.75,17.34-60.93l0-0.01l0-0.01c0.81-4.41,3.03-14.25,4.85-20.04l0.39-1.26l-1.3-0.26l-29.69-6.05l-1.3-0.27
	l-0.13,1.32C1668.93,539.5,1661.24,567.85,1652.12,590.36z M1752.57,586.98L1752.57,586.98c8.12,21.74,15.42,47.12,21.11,71.1
	l0.3,1.26l1.23-0.4l30.1-9.69l1.1-0.35l-0.32-1.11c-5.7-20.01-16.49-52.34-23.63-70.54l0,0c-7.74-19.61-21.79-50.73-30.16-66.32
	l-0.47-0.88l-0.95,0.3l-27.05,8.68l-1.39,0.44l0.71,1.27C1731.66,536.02,1744.85,565.83,1752.57,586.98z M1855.79,577.37l-1.44,0.37
	l0.67,1.33l12.81,25.43l0.45,0.89l0.95-0.28c24.41-7.09,49.57-17.62,70.26-28.25v62.62c0,8.87-0.61,21.5-1.41,26.24l-0.23,1.39h1.41
	h32.13h1.58l-0.43-1.52c-0.67-2.38-1.13-6.65-1.41-11.53c-0.28-4.84-0.38-10.16-0.38-14.59v-80.89
	c19.61-12.89,38.97-28.53,54.35-43.58l0.89-0.87l-0.9-0.85l-21.96-20.79l-0.93-0.88l-0.81,0.98
	c-13.13,15.83-36.21,35.93-57.05,48.78C1921.87,555.04,1892.09,568.11,1855.79,577.37z"/>
</svg>
