<?xml version="1.0" encoding="utf-8"?>
<!-- Generator: Adobe Illustrator 23.1.0, SVG Export Plug-In . SVG Version: 6.00 Build 0)  -->
<svg version="1.1" id="Calque_1" xmlns="http://www.w3.org/2000/svg" xmlns:xlink="http://www.w3.org/1999/xlink" x="0px" y="0px"
	 viewBox="0 0 1920 1080" style="enable-background:new 0 0 1920 1080;" xml:space="preserve">
<style type="text/css">
	.st0{fill:none;stroke:url(#SVGID_1_);stroke-width:2;}
	.st1{fill:none;stroke:url(#SVGID_2_);stroke-width:2;}
	.st2{fill:none;stroke:url(#SVGID_3_);stroke-width:2;}
	.st3{fill:none;stroke:url(#SVGID_4_);stroke-width:2;}
	.st4{fill:none;stroke:url(#SVGID_5_);stroke-width:2;}
	.st5{fill:none;stroke:url(#SVGID_6_);stroke-width:2;}
	.st6{fill:none;stroke:url(#SVGID_7_);stroke-width:2;}
	.st7{fill:none;stroke:url(#SVGID_8_);stroke-width:2;}
</style>
<linearGradient id="SVGID_1_" gradientUnits="userSpaceOnUse" x1="322.1281" y1="769.4808" x2="62.625" y2="305.1288" gradientTransform="matrix(1 0 0 1 0 2)">
	<stop  offset="0" style="stop-color:#9A6A44"/>
	<stop  offset="0.2813" style="stop-color:#FFF4BC"/>
	<stop  offset="0.5313" style="stop-color:#AB6516"/>
	<stop  offset="0.7604" style="stop-color:#9C3E09"/>
	<stop  offset="1" style="stop-color:#E7D4A6"/>
</linearGradient>
<path class="st0" d="M-113.8,472.9l0.2-1.1h-1.1H-139h-1.2l0.2,1.1c0.7,4.4,1.2,9.7,1.7,17c0.2,3.4,0.3,7.1,0.5,11.1h-55.3
	c-5.8,0-13.9-0.5-18.8-1.2l-1.1-0.2v1.1v22.5v1.1l1.1-0.1c5.9-0.3,13.3-0.7,19.4-0.7h44.5c-13.9,18.8-41.2,41.7-73.4,56.8l-1.2,0.6
	l0.9,1l15.7,17.6l0.5,0.6l0.7-0.4c26-13.7,52.6-36.1,68-55.2c0.3,16.4,0.3,32.1,0.3,42.8c0,2.4-0.4,3.9-1.1,4.8
	c-0.7,0.8-1.8,1.3-3.8,1.3c-5.7,0-14.9-0.7-22.5-2l-1.3-0.2l0.1,1.3l1.9,22l0.1,0.8l0.9,0.1c9.7,0.7,19.3,1,29.7,1
	c6.6,0,11.7-1.6,15.1-4.8c3.4-3.2,5-7.7,4.9-13.3c-0.2-16.1-0.7-34.9-1.1-53.3c-0.2-7.3-0.3-14.5-0.5-21.5h20.9
	c3.1,0,7,0.2,10.9,0.3c1.9,0.1,3.8,0.2,5.6,0.2l1,0v-1v-22.5v-1.2l-1.2,0.2c-4,0.7-12,1.3-17.5,1.3h-20.3c0-1.9-0.1-3.6-0.1-5.4
	l0-0.3c0-1.9-0.1-3.8-0.1-5.6C-114.9,484.6-114.5,478.1-113.8,472.9z M-45.3,528.9l-1.1-0.1v1.1v26.5v1.1l1.1-0.1
	c6.3-0.5,17.6-0.8,27.3-0.8h91.4c5.1,0,10.8,0.3,15.3,0.6c1.8,0.1,3.4,0.2,4.6,0.3l1,0v-1v-26.5v-1.1l-1.1,0.1
	c-0.5,0-1.1,0.1-1.7,0.1c-4.5,0.4-11.1,0.9-18.1,0.9H-18C-26.8,529.9-39.2,529.4-45.3,528.9z M159.9,615.5l-0.2,1.2h1.2h26.6h1.1
	l-0.1-1.1c-0.7-6.9-1.5-18.7-1.5-23.6v-46.5c18.3,6.3,42.9,15.8,60,24.7l1,0.5l0.4-1l9.7-23.3l0.4-0.9l-0.9-0.4
	c-15.6-7.6-47.8-19.4-70.6-26.1v-24.3c0-6.9,0.8-14.3,1.5-20.2l0.1-1.1h-1.1h-26.6h-1.2l0.2,1.2c1.2,5.8,1.7,14.2,1.7,20.1V592
	C161.6,598.7,160.9,608.8,159.9,615.5z M413,472.7l-0.5-0.7l-0.8,0.3l-13.5,5.6l-1.2,0.5l0.7,1c4.2,5.9,8.8,14.9,12.3,21.7
	c0.3,0.6,0.6,1.1,0.9,1.7l0.4,0.8l0.9-0.4l13.6-5.9l1-0.4l-0.5-1C423.3,489.7,417.3,479,413,472.7z M433.1,465.1l-0.5-0.7l-0.8,0.3
	l-13.5,5.6l-1.2,0.5l0.8,1c4.5,6.2,10.1,16.1,13.5,23l0.4,0.9l0.9-0.4l13.6-5.8l1-0.4l-0.5-1C443.8,482.3,437.5,471.6,433.1,465.1z
	 M311.1,555.3L311.1,555.3c-5.8,14.8-15.8,33-26.4,46.8l-0.8,1l1.2,0.5l23.8,10l0.7,0.3l0.5-0.7c9.1-12.8,19.2-32.1,25.3-48.6
	c6-15.8,12.1-39.2,14.5-51v0v0c0.7-3.7,2.5-11.9,4.1-16.8l0.3-1.1l-1.1-0.2l-24.9-5.1l-1.1-0.2l-0.1,1.1
	C325.2,512.6,318.8,536.4,311.1,555.3z M395.2,552.4L395.2,552.4c6.8,18.2,12.9,39.5,17.7,59.6l0.3,1l1-0.3l25.2-8.1l0.9-0.3
	l-0.3-0.9c-4.8-16.8-13.8-43.9-19.8-59.1l0,0c-6.5-16.4-18.2-42.5-25.2-55.6l-0.4-0.7l-0.8,0.3l-22.6,7.3l-1.2,0.4l0.6,1.1
	C377.7,509.7,388.8,534.7,395.2,552.4z M459.9,541.5l-1.2,0.3l0.6,1.1l10.7,21.3l0.4,0.7l0.8-0.2c20.4-5.9,41.5-14.8,58.8-23.7v52.5
	c0,7.4-0.5,18-1.2,22l-0.2,1.2h1.2h26.9h1.3l-0.4-1.3c-0.6-2-0.9-5.6-1.2-9.7c-0.2-4-0.3-8.5-0.3-12.2v-67.8
	c16.4-10.8,32.6-23.9,45.5-36.5l0.7-0.7l-0.8-0.7l-18.4-17.4l-0.8-0.7l-0.7,0.8c-11,13.3-30.3,30.1-47.8,40.9
	C515.2,522.8,490.3,533.7,459.9,541.5z"/>
<linearGradient id="SVGID_2_" gradientUnits="userSpaceOnUse" x1="1174.5211" y1="770.8711" x2="915.0181" y2="306.5191" gradientTransform="matrix(1 0 0 1 0 2)">
	<stop  offset="0" style="stop-color:#9A6A44"/>
	<stop  offset="0.2813" style="stop-color:#FFF4BC"/>
	<stop  offset="0.5313" style="stop-color:#AB6516"/>
	<stop  offset="0.7604" style="stop-color:#9C3E09"/>
	<stop  offset="1" style="stop-color:#E7D4A6"/>
</linearGradient>
<path class="st1" d="M738.5,474.3l0.2-1.1h-1.1h-24.2h-1.2l0.2,1.1c0.7,4.4,1.2,9.7,1.7,17c0.2,3.4,0.3,7.1,0.5,11.1h-55.3
	c-5.8,0-13.9-0.5-18.8-1.2l-1.1-0.2v1.1v22.5v1.1l1.1-0.1c6-0.3,13.3-0.7,19.3-0.7h44.5c-13.9,18.8-41.2,41.7-73.4,56.8l-1.2,0.6
	l0.9,1l15.7,17.6l0.5,0.6l0.7-0.4c26-13.7,52.6-36.1,68-55.2c0.3,16.4,0.3,32.1,0.3,42.8c0,2.4-0.4,3.9-1.2,4.8
	c-0.7,0.8-1.8,1.3-3.8,1.3c-5.7,0-14.9-0.7-22.5-2l-1.3-0.2l0.1,1.3l1.9,22l0.1,0.8l0.8,0.1c9.7,0.7,19.3,1,29.7,1
	c6.6,0,11.7-1.6,15.1-4.8c3.4-3.2,5-7.7,4.9-13.3c-0.2-16.1-0.7-34.9-1-53.3c-0.2-7.3-0.3-14.5-0.5-21.5h20.9c3.1,0,7,0.2,10.9,0.3
	c1.9,0.1,3.8,0.2,5.6,0.2l1,0v-1v-22.5v-1.2l-1.2,0.2c-4,0.7-12,1.3-17.5,1.3h-20.3c0-1.9,0-3.6-0.1-5.4l0-0.3
	c0-1.9-0.1-3.8-0.1-5.6C737.5,486,737.9,479.5,738.5,474.3z M807.1,530.3l-1.1-0.1v1.1v26.5v1.1l1.1-0.1c6.3-0.5,17.6-0.8,27.3-0.8
	h91.4c5,0,10.8,0.3,15.3,0.6c1.8,0.1,3.4,0.2,4.6,0.3l1,0v-1v-26.5v-1.1l-1.1,0.1c-0.5,0-1.1,0.1-1.7,0.1
	c-4.5,0.4-11.1,0.9-18.1,0.9h-91.4C825.6,531.3,813.2,530.8,807.1,530.3z M1012.3,616.9l-0.2,1.2h1.2h26.6h1.1l-0.1-1.1
	c-0.7-6.9-1.5-18.7-1.5-23.6v-46.5c18.3,6.3,42.9,15.8,60,24.7l1,0.5l0.4-1l9.7-23.3l0.4-0.9l-0.8-0.4
	c-15.6-7.6-47.8-19.4-70.6-26.1v-24.3c0-6.9,0.8-14.3,1.5-20.2l0.1-1.1h-1.1h-26.6h-1.2l0.2,1.2c1.2,5.8,1.7,14.2,1.7,20.1v97.2
	C1014,600.1,1013.3,610.2,1012.3,616.9z M1265.4,474.1l-0.5-0.7l-0.8,0.3l-13.4,5.6l-1.2,0.5l0.7,1c4.2,5.9,8.8,14.9,12.3,21.7
	c0.3,0.6,0.6,1.1,0.9,1.7l0.4,0.8l0.9-0.4l13.6-5.9l1-0.4l-0.5-1C1275.7,491.1,1269.7,480.4,1265.4,474.1z M1285.5,466.5l-0.5-0.7
	l-0.8,0.3l-13.4,5.6l-1.2,0.5l0.8,1c4.6,6.2,10.1,16.1,13.5,23l0.4,0.9l0.9-0.4l13.6-5.8l1-0.4l-0.5-1
	C1296.2,483.6,1289.9,473,1285.5,466.5z M1163.5,556.7L1163.5,556.7c-5.8,14.8-15.8,33-26.4,46.8l-0.8,1l1.2,0.5l23.8,10l0.7,0.3
	l0.5-0.7c9.1-12.8,19.2-32.1,25.3-48.6c6-15.8,12.1-39.2,14.5-51v0v0c0.7-3.7,2.5-11.9,4.1-16.8l0.3-1.1l-1.1-0.2l-24.8-5.1
	l-1.1-0.2l-0.1,1.1C1177.6,514,1171.2,537.8,1163.5,556.7z M1247.6,553.8L1247.6,553.8c6.8,18.2,12.9,39.5,17.7,59.6l0.3,1l1-0.3
	l25.2-8.1l0.9-0.3l-0.3-0.9c-4.8-16.8-13.8-43.9-19.8-59.1l0,0c-6.5-16.4-18.2-42.5-25.2-55.6l-0.4-0.7l-0.8,0.3l-22.6,7.3l-1.2,0.4
	l0.6,1.1C1230.1,511.1,1241.2,536.1,1247.6,553.8z M1312.3,542.9l-1.2,0.3l0.6,1.1l10.7,21.3l0.4,0.7l0.8-0.2
	c20.4-5.9,41.5-14.8,58.8-23.7v52.5c0,7.4-0.5,18-1.2,22l-0.2,1.2h1.2h26.9h1.3l-0.4-1.3c-0.6-2-0.9-5.6-1.2-9.7
	c-0.2-4-0.3-8.5-0.3-12.2v-67.8c16.4-10.8,32.6-23.9,45.5-36.5l0.7-0.7l-0.8-0.7l-18.4-17.4l-0.8-0.7l-0.7,0.8
	c-11,13.3-30.3,30.1-47.8,40.9C1367.6,524.2,1342.7,535.1,1312.3,542.9z"/>
<linearGradient id="SVGID_3_" gradientUnits="userSpaceOnUse" x1="2040.5211" y1="769.8711" x2="1781.0181" y2="305.5191" gradientTransform="matrix(1 0 0 1 0 2)">
	<stop  offset="0" style="stop-color:#9A6A44"/>
	<stop  offset="0.2813" style="stop-color:#FFF4BC"/>
	<stop  offset="0.5313" style="stop-color:#AB6516"/>
	<stop  offset="0.7604" style="stop-color:#9C3E09"/>
	<stop  offset="1" style="stop-color:#E7D4A6"/>
</linearGradient>
<path class="st2" d="M1604.5,473.3l0.2-1.1h-1.1h-24.2h-1.2l0.2,1.1c0.7,4.4,1.2,9.7,1.7,17c0.2,3.4,0.3,7.1,0.5,11.1h-55.3
	c-5.8,0-13.9-0.5-18.8-1.2l-1.1-0.2v1.1v22.5v1.1l1.1-0.1c5.9-0.3,13.3-0.7,19.3-0.7h44.5c-13.9,18.8-41.2,41.7-73.4,56.8l-1.2,0.6
	l0.9,1l15.7,17.6l0.5,0.6l0.7-0.4c26-13.7,52.6-36.1,68-55.2c0.3,16.4,0.3,32.1,0.3,42.8c0,2.4-0.4,3.9-1.2,4.8
	c-0.7,0.8-1.8,1.3-3.8,1.3c-5.7,0-14.9-0.7-22.5-2l-1.3-0.2l0.1,1.3l1.9,22l0.1,0.8l0.8,0.1c9.7,0.7,19.3,1,29.7,1
	c6.6,0,11.7-1.6,15.1-4.8c3.4-3.2,5-7.7,4.9-13.3c-0.2-16.1-0.7-34.9-1.1-53.3c-0.2-7.3-0.3-14.5-0.5-21.5h20.9
	c3.1,0,7,0.2,10.9,0.3c1.9,0.1,3.8,0.2,5.6,0.2l1,0v-1v-22.5v-1.2l-1.2,0.2c-4,0.7-12,1.3-17.5,1.3h-20.3c0-1.9-0.1-3.6-0.1-5.4
	l0-0.3c0-1.9-0.1-3.8-0.1-5.6C1603.5,485,1603.9,478.5,1604.5,473.3z M1673.1,529.3l-1.1-0.1v1.1v26.5v1.1l1.1-0.1
	c6.3-0.5,17.6-0.8,27.3-0.8h91.4c5.1,0,10.8,0.3,15.3,0.6c1.8,0.1,3.4,0.2,4.6,0.3l1,0v-1v-26.5v-1.1l-1.1,0.1
	c-0.5,0-1.1,0.1-1.7,0.1c-4.5,0.4-11.1,0.9-18.1,0.9h-91.4C1691.6,530.3,1679.2,529.8,1673.1,529.3z M1878.3,615.9l-0.2,1.2h1.2
	h26.6h1.1l-0.1-1.1c-0.7-6.9-1.5-18.7-1.5-23.6v-46.5c18.3,6.3,42.9,15.8,60,24.7l1,0.5l0.4-1l9.7-23.3l0.4-0.9l-0.8-0.4
	c-15.6-7.6-47.8-19.4-70.6-26.1v-24.3c0-6.9,0.8-14.3,1.5-20.2l0.1-1.1h-1.1h-26.6h-1.2l0.2,1.2c1.2,5.8,1.7,14.2,1.7,20.1v97.2
	C1880,599.1,1879.3,609.2,1878.3,615.9z M2131.4,473.1l-0.5-0.7l-0.8,0.3l-13.4,5.6l-1.2,0.5l0.7,1c4.2,5.9,8.8,14.9,12.3,21.7
	c0.3,0.6,0.6,1.1,0.9,1.7l0.4,0.8l0.9-0.4l13.6-5.9l1-0.4l-0.5-1C2141.6,490.1,2135.7,479.4,2131.4,473.1z M2151.5,465.5l-0.5-0.7
	l-0.8,0.3l-13.4,5.6l-1.2,0.5l0.8,1c4.6,6.2,10.1,16.1,13.5,23l0.4,0.9l0.9-0.4l13.6-5.8l1-0.4l-0.5-1
	C2162.2,482.6,2155.9,472,2151.5,465.5z M2029.5,555.7L2029.5,555.7c-5.8,14.8-15.8,33-26.4,46.8l-0.8,1l1.2,0.5l23.8,10l0.7,0.3
	l0.5-0.7c9.1-12.8,19.2-32.1,25.3-48.6c6-15.8,12.1-39.2,14.5-51v0v0c0.7-3.7,2.5-11.9,4.1-16.8l0.3-1.1l-1.1-0.2l-24.8-5.1
	l-1.1-0.2l-0.1,1.1C2043.6,513,2037.2,536.8,2029.5,555.7z M2113.6,552.8L2113.6,552.8c6.8,18.2,12.9,39.5,17.7,59.6l0.3,1l1-0.3
	l25.2-8.1l0.9-0.3l-0.3-0.9c-4.8-16.8-13.8-43.9-19.8-59.1l0,0c-6.5-16.4-18.2-42.5-25.2-55.6l-0.4-0.7l-0.8,0.3l-22.6,7.3l-1.2,0.4
	l0.6,1.1C2096.1,510.1,2107.2,535.1,2113.6,552.8z M2178.3,541.9l-1.2,0.3l0.6,1.1l10.7,21.3l0.4,0.7l0.8-0.2
	c20.4-5.9,41.5-14.8,58.8-23.7v52.5c0,7.4-0.5,18-1.2,22l-0.2,1.2h1.2h26.9h1.3l-0.4-1.3c-0.6-2-0.9-5.6-1.2-9.7
	c-0.2-4-0.3-8.5-0.3-12.2v-67.8c16.4-10.8,32.6-23.9,45.5-36.5l0.7-0.7l-0.8-0.7l-18.4-17.4l-0.8-0.7l-0.7,0.8
	c-11,13.3-30.3,30.1-47.8,40.9C2233.6,523.2,2208.7,534.1,2178.3,541.9z"/>
<linearGradient id="SVGID_4_" gradientUnits="userSpaceOnUse" x1="2888.5989" y1="768.8761" x2="2629.0962" y2="304.5241" gradientTransform="matrix(1 0 0 1 0 2)">
	<stop  offset="0" style="stop-color:#9A6A44"/>
	<stop  offset="0.2813" style="stop-color:#FFF4BC"/>
	<stop  offset="0.5313" style="stop-color:#AB6516"/>
	<stop  offset="0.7604" style="stop-color:#9C3E09"/>
	<stop  offset="1" style="stop-color:#E7D4A6"/>
</linearGradient>
<path class="st3" d="M2452.6,472.3l0.1-1.1h-1.1h-24.2h-1.2l0.2,1.1c0.7,4.4,1.2,9.7,1.7,17c0.2,3.4,0.3,7.1,0.5,11.1h-55.3
	c-5.8,0-13.9-0.5-18.8-1.2l-1.1-0.2v1.1v22.5v1.1l1.1-0.1c5.9-0.3,13.3-0.7,19.4-0.7h44.5c-13.9,18.8-41.2,41.7-73.4,56.8l-1.2,0.6
	l0.9,1l15.7,17.6l0.5,0.6l0.7-0.4c26-13.7,52.6-36.1,68-55.2c0.3,16.4,0.3,32.1,0.3,42.8c0,2.4-0.4,3.9-1.1,4.8
	c-0.7,0.8-1.8,1.3-3.8,1.3c-5.7,0-14.9-0.7-22.5-2l-1.3-0.2l0.1,1.3l1.9,22l0.1,0.8l0.9,0.1c9.7,0.7,19.3,1,29.7,1
	c6.6,0,11.7-1.6,15.1-4.8c3.4-3.2,5-7.7,4.9-13.3c-0.2-16.1-0.6-34.9-1.1-53.3c-0.2-7.3-0.3-14.5-0.5-21.5h20.9
	c3.1,0,7,0.2,10.9,0.3c1.9,0.1,3.8,0.2,5.6,0.2l1,0v-1v-22.5v-1.2l-1.2,0.2c-4,0.7-12,1.3-17.5,1.3h-20.3c0-1.9-0.1-3.6-0.1-5.4
	l0-0.3c0-1.9-0.1-3.8-0.1-5.6C2451.6,484,2451.9,477.5,2452.6,472.3z M2521.2,528.3l-1.1-0.1v1.1v26.5v1.1l1.1-0.1
	c6.3-0.5,17.6-0.8,27.3-0.8h91.4c5.1,0,10.8,0.3,15.3,0.6c1.8,0.1,3.4,0.2,4.6,0.3l1,0v-1v-26.5v-1.1l-1.1,0.1
	c-0.5,0-1.1,0.1-1.7,0.1c-4.5,0.4-11.1,0.9-18.1,0.9h-91.4C2539.7,529.3,2527.3,528.8,2521.2,528.3z M2726.4,614.9l-0.2,1.2h1.2
	h26.6h1.1l-0.1-1.1c-0.7-6.9-1.5-18.7-1.5-23.6v-46.5c18.3,6.3,42.9,15.8,60,24.7l1,0.5l0.4-1l9.7-23.3l0.4-0.9l-0.9-0.4
	c-15.6-7.6-47.8-19.4-70.6-26.1v-24.3c0-6.9,0.8-14.3,1.5-20.2l0.1-1.1h-1.1h-26.6h-1.2l0.2,1.2c1.2,5.8,1.7,14.2,1.7,20.1v97.2
	C2728.1,598.1,2727.4,608.2,2726.4,614.9z M2979.5,472.1l-0.5-0.7l-0.8,0.3l-13.4,5.6l-1.2,0.5l0.7,1c4.2,5.9,8.8,14.9,12.3,21.7
	c0.3,0.6,0.6,1.1,0.9,1.7l0.4,0.8l0.9-0.4l13.6-5.9l1-0.4l-0.5-1C2989.7,489.1,2983.8,478.4,2979.5,472.1z M2999.6,464.5l-0.5-0.7
	l-0.8,0.3l-13.4,5.6l-1.2,0.5l0.8,1c4.6,6.2,10.1,16.1,13.5,23l0.4,0.9l0.9-0.4l13.6-5.8l1-0.4l-0.5-1
	C3010.3,481.6,3004,471,2999.6,464.5z M2877.6,554.7L2877.6,554.7c-5.8,14.8-15.8,33-26.4,46.8l-0.8,1l1.2,0.5l23.8,10l0.7,0.3
	l0.5-0.7c9.1-12.8,19.2-32.1,25.3-48.6c6-15.8,12.1-39.2,14.5-51v0v0c0.7-3.7,2.5-11.9,4.1-16.8l0.3-1.1l-1.1-0.2l-24.9-5.1
	l-1.1-0.2l-0.1,1.1C2891.7,512,2885.3,535.8,2877.6,554.7z M2961.7,551.8L2961.7,551.8c6.8,18.2,12.9,39.5,17.7,59.6l0.3,1l1-0.3
	l25.2-8.1l0.9-0.3l-0.3-0.9c-4.8-16.8-13.8-43.9-19.8-59.1l0,0c-6.5-16.4-18.2-42.5-25.2-55.6l-0.4-0.7l-0.8,0.3l-22.6,7.3l-1.2,0.4
	l0.6,1.1C2944.2,509.1,2955.2,534.1,2961.7,551.8z M3026.4,540.9l-1.2,0.3l0.6,1.1l10.7,21.3l0.4,0.7l0.8-0.2
	c20.4-5.9,41.5-14.8,58.8-23.7v52.5c0,7.4-0.5,18-1.2,22l-0.2,1.2h1.2h26.9h1.3l-0.4-1.3c-0.6-2-0.9-5.6-1.2-9.7
	c-0.2-4-0.3-8.5-0.3-12.2v-67.8c16.4-10.8,32.6-23.9,45.5-36.5l0.7-0.7l-0.8-0.7l-18.4-17.4l-0.8-0.7l-0.7,0.8
	c-11,13.3-30.3,30.1-47.8,40.9C3081.7,522.2,3056.8,533.1,3026.4,540.9z"/>
<linearGradient id="SVGID_5_" gradientUnits="userSpaceOnUse" x1="3749.3599" y1="769.0478" x2="3489.8567" y2="304.6958" gradientTransform="matrix(1 0 0 1 0 2)">
	<stop  offset="0" style="stop-color:#9A6A44"/>
	<stop  offset="0.2813" style="stop-color:#FFF4BC"/>
	<stop  offset="0.5313" style="stop-color:#AB6516"/>
	<stop  offset="0.7604" style="stop-color:#9C3E09"/>
	<stop  offset="1" style="stop-color:#E7D4A6"/>
</linearGradient>
<path class="st4" d="M3313.4,472.5l0.2-1.1h-1.1h-24.2h-1.2l0.2,1.1c0.7,4.4,1.2,9.7,1.7,17c0.2,3.4,0.3,7.1,0.5,11.1h-55.3
	c-5.8,0-13.9-0.5-18.8-1.2l-1.1-0.2v1.1v22.5v1.1l1.1-0.1c5.9-0.3,13.3-0.7,19.4-0.7h44.5c-13.9,18.8-41.2,41.7-73.4,56.8l-1.2,0.6
	l0.9,1l15.7,17.6l0.5,0.6l0.7-0.4c26-13.7,52.6-36.1,68-55.2c0.3,16.4,0.3,32.1,0.3,42.8c0,2.4-0.4,3.9-1.1,4.8
	c-0.7,0.8-1.8,1.3-3.8,1.3c-5.7,0-14.9-0.7-22.5-2l-1.3-0.2l0.1,1.3l1.9,22l0.1,0.8l0.9,0.1c9.7,0.7,19.3,1,29.7,1
	c6.6,0,11.7-1.6,15.1-4.8c3.4-3.2,5-7.7,4.9-13.3c-0.2-16.1-0.6-34.9-1.1-53.3c-0.2-7.3-0.3-14.5-0.5-21.5h20.9
	c3.1,0,7,0.2,10.9,0.3c1.9,0.1,3.8,0.2,5.6,0.2l1,0v-1v-22.5v-1.2l-1.2,0.2c-4,0.7-12,1.3-17.5,1.3h-20.3c0-1.9-0.1-3.6-0.1-5.4
	l0-0.3c0-1.9-0.1-3.8-0.1-5.6C3312.4,484.2,3312.7,477.7,3313.4,472.5z M3381.9,528.5l-1.1-0.1v1.1v26.5v1.1l1.1-0.1
	c6.3-0.5,17.6-0.8,27.3-0.8h91.4c5.1,0,10.8,0.3,15.3,0.6c1.8,0.1,3.4,0.2,4.6,0.3l1,0v-1v-26.5v-1.1l-1.1,0.1
	c-0.5,0-1.1,0.1-1.7,0.1c-4.5,0.4-11.1,0.9-18.1,0.9h-91.4C3400.4,529.5,3388,529,3381.9,528.5z M3587.2,615.1l-0.2,1.2h1.2h26.6
	h1.1l-0.1-1.1c-0.7-6.9-1.5-18.7-1.5-23.6v-46.5c18.3,6.3,42.9,15.8,60,24.7l1,0.5l0.4-1l9.7-23.3l0.4-0.9l-0.9-0.4
	c-15.6-7.6-47.8-19.4-70.6-26.1v-24.3c0-6.9,0.8-14.3,1.5-20.2l0.1-1.1h-1.1h-26.6h-1.2l0.2,1.2c1.2,5.8,1.7,14.2,1.7,20.1v97.2
	C3588.8,598.3,3588.2,608.4,3587.2,615.1z M3840.2,472.3l-0.5-0.7l-0.8,0.3l-13.4,5.6l-1.2,0.5l0.7,1c4.2,5.9,8.8,14.9,12.3,21.7
	c0.3,0.6,0.6,1.1,0.9,1.7l0.4,0.8l0.9-0.4l13.6-5.9l1-0.4l-0.5-1C3850.5,489.3,3844.5,478.6,3840.2,472.3z M3860.3,464.7l-0.5-0.7
	l-0.8,0.3l-13.4,5.6l-1.2,0.5l0.8,1c4.6,6.2,10.1,16.1,13.5,23l0.4,0.9l0.9-0.4l13.6-5.8l1-0.4l-0.5-1
	C3871.1,481.8,3864.7,471.1,3860.3,464.7z M3738.4,554.8L3738.4,554.8c-5.8,14.8-15.8,33-26.4,46.8l-0.8,1l1.2,0.5l23.8,10l0.7,0.3
	l0.5-0.7c9.1-12.8,19.2-32.1,25.3-48.6c6-15.8,12.1-39.2,14.5-51v0v0c0.7-3.7,2.5-11.9,4.1-16.8l0.3-1.1l-1.1-0.2l-24.8-5.1
	l-1.1-0.2l-0.1,1.1C3752.4,512.2,3746,536,3738.4,554.8z M3822.4,552L3822.4,552c6.8,18.2,12.9,39.5,17.7,59.6l0.3,1l1-0.3l25.2-8.1
	l0.9-0.3l-0.3-0.9c-4.8-16.8-13.8-43.9-19.8-59.1l0,0c-6.5-16.4-18.2-42.5-25.2-55.6l-0.4-0.7l-0.8,0.3l-22.6,7.3l-1.2,0.4l0.6,1.1
	C3804.9,509.3,3816,534.3,3822.4,552z M3887.1,541l-1.2,0.3l0.6,1.1l10.7,21.3l0.4,0.7l0.8-0.2c20.4-5.9,41.5-14.8,58.8-23.7v52.5
	c0,7.4-0.5,18-1.2,22l-0.2,1.2h1.2h26.9h1.3l-0.4-1.3c-0.6-2-0.9-5.6-1.2-9.7c-0.2-4-0.3-8.5-0.3-12.2v-67.8
	c16.4-10.8,32.6-23.9,45.5-36.5l0.7-0.7l-0.8-0.7l-18.4-17.4l-0.8-0.7l-0.7,0.8c-11,13.3-30.3,30.1-47.8,40.9
	C3942.5,522.3,3917.5,533.3,3887.1,541z"/>
<linearGradient id="SVGID_6_" gradientUnits="userSpaceOnUse" x1="4597.4375" y1="768.0529" x2="4337.9346" y2="303.7009" gradientTransform="matrix(1 0 0 1 0 2)">
	<stop  offset="0" style="stop-color:#9A6A44"/>
	<stop  offset="0.2813" style="stop-color:#FFF4BC"/>
	<stop  offset="0.5313" style="stop-color:#AB6516"/>
	<stop  offset="0.7604" style="stop-color:#9C3E09"/>
	<stop  offset="1" style="stop-color:#E7D4A6"/>
</linearGradient>
<path class="st5" d="M4161.5,471.5l0.1-1.1h-1.1h-24.2h-1.2l0.2,1.1c0.7,4.4,1.2,9.7,1.7,17c0.2,3.4,0.3,7.1,0.5,11.1h-55.3
	c-5.8,0-13.9-0.5-18.8-1.2l-1.1-0.2v1.1v22.5v1.1l1.1-0.1c5.9-0.3,13.3-0.7,19.4-0.7h44.5c-13.9,18.8-41.2,41.7-73.4,56.8l-1.2,0.6
	l0.9,1l15.7,17.6l0.5,0.6l0.7-0.4c26-13.7,52.6-36.1,68-55.2c0.3,16.4,0.3,32.1,0.3,42.8c0,2.4-0.4,3.9-1.1,4.8
	c-0.7,0.8-1.8,1.3-3.8,1.3c-5.7,0-14.9-0.7-22.5-2l-1.3-0.2l0.1,1.3l1.9,22l0.1,0.8l0.9,0.1c9.7,0.7,19.3,1,29.7,1
	c6.6,0,11.7-1.6,15.1-4.8c3.4-3.2,5-7.7,4.9-13.3c-0.2-16.1-0.6-34.9-1.1-53.3c-0.2-7.3-0.3-14.5-0.5-21.5h20.9
	c3.1,0,7,0.2,10.9,0.3c1.9,0.1,3.8,0.2,5.6,0.2l1,0v-1v-22.5v-1.2l-1.2,0.2c-4,0.7-12,1.3-17.5,1.3h-20.3c0-1.9,0-3.6-0.1-5.4l0-0.3
	c0-1.9-0.1-3.8-0.1-5.6C4160.4,483.2,4160.8,476.7,4161.5,471.5z M4230,527.5l-1.1-0.1v1.1v26.5v1.1l1.1-0.1
	c6.3-0.5,17.6-0.8,27.3-0.8h91.4c5,0,10.8,0.3,15.3,0.6c1.8,0.1,3.4,0.2,4.6,0.3l1,0v-1v-26.5v-1.1l-1.1,0.1c-0.5,0-1.1,0.1-1.7,0.1
	c-4.5,0.4-11.1,0.9-18.1,0.9h-91.4C4248.5,528.5,4236.1,528,4230,527.5z M4435.2,614.1l-0.2,1.2h1.2h26.6h1.1l-0.1-1.1
	c-0.7-6.9-1.5-18.7-1.5-23.6v-46.5c18.3,6.3,42.9,15.8,60,24.7l1,0.5l0.4-1l9.7-23.3l0.4-0.9l-0.9-0.4
	c-15.6-7.6-47.8-19.4-70.6-26.1v-24.3c0-6.9,0.8-14.3,1.5-20.2l0.1-1.1h-1.1h-26.5h-1.2l0.2,1.2c1.2,5.8,1.7,14.2,1.7,20.1v97.2
	C4436.9,597.3,4436.3,607.4,4435.2,614.1z M4688.3,471.3l-0.5-0.7l-0.8,0.3l-13.4,5.6l-1.2,0.5l0.7,1c4.2,5.9,8.8,14.9,12.3,21.7
	c0.3,0.6,0.6,1.1,0.9,1.7l0.4,0.8l0.9-0.4l13.6-5.9l1-0.4l-0.5-1C4698.6,488.3,4692.6,477.6,4688.3,471.3z M4708.4,463.7l-0.5-0.7
	l-0.8,0.3l-13.4,5.6l-1.2,0.5l0.8,1c4.6,6.2,10.1,16.1,13.5,23l0.4,0.9l0.9-0.4l13.6-5.8l1-0.4l-0.5-1
	C4719.2,480.8,4712.8,470.1,4708.4,463.7z M4586.5,553.8L4586.5,553.8c-5.8,14.8-15.8,33-26.4,46.8l-0.8,1l1.2,0.5l23.8,10l0.7,0.3
	l0.5-0.7c9.1-12.8,19.2-32.1,25.3-48.6c6-15.8,12.1-39.2,14.5-51v0v0c0.7-3.7,2.5-11.9,4.1-16.8l0.3-1.1l-1.1-0.2l-24.9-5.1
	l-1.1-0.2l-0.1,1.1C4600.5,511.2,4594.1,535,4586.5,553.8z M4670.5,551L4670.5,551c6.8,18.2,12.9,39.5,17.7,59.6l0.3,1l1-0.3
	l25.2-8.1l0.9-0.3l-0.3-0.9c-4.8-16.8-13.8-43.9-19.8-59.1l0,0c-6.5-16.4-18.2-42.5-25.2-55.6l-0.4-0.7l-0.8,0.3l-22.6,7.3l-1.2,0.4
	l0.6,1.1C4653,508.3,4664.1,533.3,4670.5,551z M4735.2,540l-1.2,0.3l0.6,1.1l10.7,21.3l0.4,0.7l0.8-0.2
	c20.4-5.9,41.5-14.8,58.8-23.7v52.5c0,7.4-0.5,18-1.2,22l-0.2,1.2h1.2h26.9h1.3l-0.4-1.3c-0.6-2-0.9-5.6-1.2-9.7
	c-0.2-4-0.3-8.5-0.3-12.2v-67.8c16.4-10.8,32.6-23.9,45.5-36.5l0.7-0.7l-0.8-0.7l-18.4-17.4l-0.8-0.7l-0.7,0.8
	c-11,13.3-30.3,30.1-47.8,40.9C4790.5,521.3,4765.6,532.3,4735.2,540z"/>
<linearGradient id="SVGID_7_" gradientUnits="userSpaceOnUse" x1="5450.3599" y1="769.0478" x2="5190.8569" y2="304.6958" gradientTransform="matrix(1 0 0 1 0 2)">
	<stop  offset="0" style="stop-color:#9A6A44"/>
	<stop  offset="0.2813" style="stop-color:#FFF4BC"/>
	<stop  offset="0.5313" style="stop-color:#AB6516"/>
	<stop  offset="0.7604" style="stop-color:#9C3E09"/>
	<stop  offset="1" style="stop-color:#E7D4A6"/>
</linearGradient>
<path class="st6" d="M5014.4,472.5l0.1-1.1h-1.1h-24.2h-1.2l0.2,1.1c0.7,4.4,1.2,9.7,1.7,17c0.2,3.4,0.3,7.1,0.5,11.1h-55.3
	c-5.8,0-13.9-0.5-18.8-1.2l-1.1-0.2v1.1v22.5v1.1l1.1-0.1c6-0.3,13.3-0.7,19.4-0.7h44.5c-13.9,18.8-41.2,41.7-73.4,56.8l-1.2,0.6
	l0.9,1l15.7,17.6l0.5,0.6l0.7-0.4c26-13.7,52.6-36.1,68-55.2c0.3,16.4,0.3,32.1,0.3,42.8c0,2.4-0.4,3.9-1.1,4.8
	c-0.7,0.8-1.8,1.3-3.8,1.3c-5.7,0-14.9-0.7-22.5-2l-1.3-0.2l0.1,1.3l1.9,22l0.1,0.8l0.8,0.1c9.7,0.7,19.3,1,29.7,1
	c6.6,0,11.7-1.6,15.1-4.8c3.4-3.2,5-7.7,4.9-13.3c-0.2-16.1-0.6-34.9-1-53.3c-0.2-7.3-0.3-14.5-0.5-21.5h20.9c3.1,0,7,0.2,10.9,0.3
	c1.9,0.1,3.8,0.2,5.6,0.2l1,0v-1v-22.5v-1.2l-1.2,0.2c-4,0.7-12,1.3-17.5,1.3h-20.3c0-1.9-0.1-3.6-0.1-5.4l0-0.3
	c0-1.9-0.1-3.8-0.1-5.6C5013.4,484.2,5013.7,477.7,5014.4,472.5z M5082.9,528.5l-1.1-0.1v1.1v26.5v1.1l1.1-0.1
	c6.3-0.5,17.6-0.8,27.3-0.8h91.4c5,0,10.8,0.3,15.3,0.6c1.8,0.1,3.4,0.2,4.6,0.3l1,0v-1v-26.5v-1.1l-1.1,0.1c-0.5,0-1.1,0.1-1.7,0.1
	c-4.5,0.4-11.1,0.9-18.1,0.9h-91.4C5101.4,529.5,5089,529,5082.9,528.5z M5288.2,615.1l-0.2,1.2h1.2h26.6h1.1l-0.1-1.1
	c-0.7-6.9-1.5-18.7-1.5-23.6v-46.5c18.3,6.3,42.9,15.8,60,24.7l1,0.5l0.4-1l9.7-23.3l0.4-0.9l-0.8-0.4
	c-15.6-7.6-47.8-19.4-70.6-26.1v-24.3c0-6.9,0.8-14.3,1.5-20.2l0.1-1.1h-1.1h-26.6h-1.2l0.2,1.2c1.2,5.8,1.7,14.2,1.7,20.1v97.2
	C5289.8,598.3,5289.2,608.4,5288.2,615.1z M5541.2,472.3l-0.5-0.7l-0.8,0.3l-13.5,5.6l-1.2,0.5l0.7,1c4.2,5.9,8.8,14.9,12.3,21.7
	c0.3,0.6,0.6,1.1,0.9,1.7l0.4,0.8l0.9-0.4l13.6-5.9l1-0.4l-0.5-1C5551.5,489.3,5545.5,478.6,5541.2,472.3z M5561.3,464.7l-0.5-0.7
	l-0.8,0.3l-13.5,5.6l-1.2,0.5l0.8,1c4.5,6.2,10.1,16.1,13.5,23l0.4,0.9l0.9-0.4l13.6-5.8l1-0.4l-0.5-1
	C5572.1,481.8,5565.7,471.1,5561.3,464.7z M5439.4,554.8L5439.4,554.8c-5.8,14.8-15.8,33-26.4,46.8l-0.8,1l1.2,0.5l23.8,10l0.7,0.3
	l0.5-0.7c9.1-12.8,19.2-32.1,25.3-48.6c6-15.8,12.1-39.2,14.5-51v0v0c0.7-3.7,2.5-11.9,4.1-16.8l0.3-1.1l-1.1-0.2l-24.9-5.1
	l-1.1-0.2l-0.1,1.1C5453.4,512.2,5447,536,5439.4,554.8z M5523.4,552L5523.4,552c6.8,18.2,12.9,39.5,17.7,59.6l0.3,1l1-0.3l25.2-8.1
	l0.9-0.3l-0.3-0.9c-4.8-16.8-13.8-43.9-19.8-59.1l0,0c-6.5-16.4-18.2-42.5-25.2-55.6l-0.4-0.7l-0.8,0.3l-22.6,7.3l-1.2,0.4l0.6,1.1
	C5505.9,509.3,5517,534.3,5523.4,552z M5588.1,541l-1.2,0.3l0.6,1.1l10.7,21.3l0.4,0.7l0.8-0.2c20.4-5.9,41.5-14.8,58.8-23.7v52.5
	c0,7.4-0.5,18-1.2,22l-0.2,1.2h1.2h26.9h1.3l-0.4-1.3c-0.6-2-0.9-5.6-1.2-9.7c-0.2-4-0.3-8.5-0.3-12.2v-67.8
	c16.4-10.8,32.6-23.9,45.5-36.5l0.7-0.7l-0.8-0.7l-18.4-17.4l-0.8-0.7l-0.7,0.8c-11,13.3-30.3,30.1-47.8,40.9
	C5643.5,522.3,5618.5,533.3,5588.1,541z"/>
<linearGradient id="SVGID_8_" gradientUnits="userSpaceOnUse" x1="6298.4375" y1="768.0529" x2="6038.9346" y2="303.7009" gradientTransform="matrix(1 0 0 1 0 2)">
	<stop  offset="0" style="stop-color:#9A6A44"/>
	<stop  offset="0.2813" style="stop-color:#FFF4BC"/>
	<stop  offset="0.5313" style="stop-color:#AB6516"/>
	<stop  offset="0.7604" style="stop-color:#9C3E09"/>
	<stop  offset="1" style="stop-color:#E7D4A6"/>
</linearGradient>
<path class="st7" d="M5862.5,471.5l0.1-1.1h-1.1h-24.2h-1.2l0.2,1.1c0.7,4.4,1.2,9.7,1.7,17c0.2,3.4,0.3,7.1,0.5,11.1h-55.3
	c-5.8,0-13.9-0.5-18.8-1.2l-1.1-0.2v1.1v22.5v1.1l1.1-0.1c5.9-0.3,13.3-0.7,19.4-0.7h44.5c-13.9,18.8-41.2,41.7-73.4,56.8l-1.2,0.6
	l0.9,1l15.7,17.6l0.5,0.6l0.7-0.4c26-13.7,52.6-36.1,68-55.2c0.3,16.4,0.3,32.1,0.3,42.8c0,2.4-0.4,3.9-1.1,4.8
	c-0.7,0.8-1.8,1.3-3.8,1.3c-5.7,0-14.9-0.7-22.5-2l-1.3-0.2l0.1,1.3l1.9,22l0.1,0.8l0.9,0.1c9.7,0.7,19.3,1,29.7,1
	c6.6,0,11.7-1.6,15.1-4.8c3.4-3.2,5-7.7,4.9-13.3c-0.2-16.1-0.6-34.9-1.1-53.3c-0.2-7.3-0.3-14.5-0.5-21.5h20.9
	c3.1,0,7,0.2,10.9,0.3c1.9,0.1,3.8,0.2,5.6,0.2l1,0v-1v-22.5v-1.2l-1.2,0.2c-4,0.7-12,1.3-17.5,1.3h-20.3c0-1.9,0-3.6-0.1-5.4l0-0.3
	c0-1.9-0.1-3.8-0.1-5.6C5861.4,483.2,5861.8,476.7,5862.5,471.5z M5931,527.5l-1.1-0.1v1.1v26.5v1.1l1.1-0.1
	c6.3-0.5,17.6-0.8,27.3-0.8h91.4c5,0,10.8,0.3,15.3,0.6c1.8,0.1,3.4,0.2,4.6,0.3l1,0v-1v-26.5v-1.1l-1.1,0.1c-0.5,0-1.1,0.1-1.7,0.1
	c-4.5,0.4-11.1,0.9-18.1,0.9h-91.4C5949.5,528.5,5937.1,528,5931,527.5z M6136.2,614.1l-0.2,1.2h1.2h26.6h1.1l-0.1-1.1
	c-0.7-6.9-1.5-18.7-1.5-23.6v-46.5c18.3,6.3,42.9,15.8,60,24.7l1,0.5l0.4-1l9.7-23.3l0.4-0.9l-0.9-0.4
	c-15.6-7.6-47.8-19.4-70.6-26.1v-24.3c0-6.9,0.8-14.3,1.5-20.2l0.1-1.1h-1.1h-26.5h-1.2l0.2,1.2c1.2,5.8,1.7,14.2,1.7,20.1v97.2
	C6137.9,597.3,6137.3,607.4,6136.2,614.1z M6389.3,471.3l-0.5-0.7l-0.8,0.3l-13.4,5.6l-1.2,0.5l0.7,1c4.2,5.9,8.8,14.9,12.3,21.7
	c0.3,0.6,0.6,1.1,0.9,1.7l0.4,0.8l0.9-0.4l13.6-5.9l1-0.4l-0.5-1C6399.6,488.3,6393.6,477.6,6389.3,471.3z M6409.4,463.7l-0.5-0.7
	l-0.8,0.3l-13.4,5.6l-1.2,0.5l0.8,1c4.6,6.2,10.1,16.1,13.5,23l0.4,0.9l0.9-0.4l13.6-5.8l1-0.4l-0.5-1
	C6420.2,480.8,6413.8,470.1,6409.4,463.7z M6287.5,553.8L6287.5,553.8c-5.8,14.8-15.8,33-26.4,46.8l-0.8,1l1.2,0.5l23.8,10l0.7,0.3
	l0.5-0.7c9.1-12.8,19.2-32.1,25.3-48.6c6-15.8,12.1-39.2,14.5-51v0v0c0.7-3.7,2.5-11.9,4.1-16.8l0.3-1.1l-1.1-0.2l-24.9-5.1
	l-1.1-0.2l-0.1,1.1C6301.5,511.2,6295.1,535,6287.5,553.8z M6371.5,551L6371.5,551c6.8,18.2,12.9,39.5,17.7,59.6l0.3,1l1-0.3
	l25.2-8.1l0.9-0.3l-0.3-0.9c-4.8-16.8-13.8-43.9-19.8-59.1l0,0c-6.5-16.4-18.2-42.5-25.2-55.6l-0.4-0.7l-0.8,0.3l-22.6,7.3l-1.2,0.4
	l0.6,1.1C6354,508.3,6365.1,533.3,6371.5,551z M6436.2,540l-1.2,0.3l0.6,1.1l10.7,21.3l0.4,0.7l0.8-0.2
	c20.4-5.9,41.5-14.8,58.8-23.7v52.5c0,7.4-0.5,18-1.2,22l-0.2,1.2h1.2h26.9h1.3l-0.4-1.3c-0.6-2-0.9-5.6-1.2-9.7
	c-0.2-4-0.3-8.5-0.3-12.2v-67.8c16.4-10.8,32.6-23.9,45.5-36.5l0.7-0.7l-0.8-0.7l-18.4-17.4l-0.8-0.7l-0.7,0.8
	c-11,13.3-30.3,30.1-47.8,40.9C6491.5,521.3,6466.6,532.3,6436.2,540z"/>
</svg>
